<svg
    width="16"
    height="18"
    viewBox="0 0 16 18"
    fill="none"
    xmlns="http://www.w3.org/2000/svg">
    <path
        fill-rule="evenodd"
        clip-rule="evenodd"
        d="M10 0.585815L6 4.58582V17.4141L10 13.4141V0.585815ZM1.70667 2.29332C1.56682 2.15364 1.38871 2.05854 1.19485 2.02003C1.00098 1.98152 0.800053 2.00132 0.617435 2.07693C0.434817 2.15255 0.278703 2.28058 0.16881 2.44487C0.0589169 2.60916 0.00017385 2.80233 0 2.99998V13C0 13.265 0.105833 13.5191 0.293333 13.7066L4 17.4141V4.58582L1.70667 2.29332ZM15.7067 4.29332L12 0.585815V13.4141L14.2933 15.7066C14.4332 15.8463 14.6113 15.9414 14.8052 15.9799C14.999 16.0184 15.1999 15.9986 15.3826 15.923C15.5652 15.8474 15.7213 15.7194 15.8312 15.5551C15.9411 15.3908 15.9998 15.1976 16 15V4.99998C15.9998 4.73485 15.8943 4.48067 15.7067 4.29332Z"
        fill="#A6B7C2"
    />
</svg>