<svg
   viewBox="0 0 16 16"
   width="16"
   height="16"
   xmlns="http://www.w3.org/2000/svg">
   <g transform="scale(0.03474854)">
      <g>
         <path
            d="M 230,0 C 102.975,0 0,102.975 0,230 0,357.025 102.975,460 230,460 357.025,460 460,357.026 460,230 460,102.974 357.025,0 230,0 Z m 38.333,377.36 c 0,8.676 -7.034,15.71 -15.71,15.71 h -43.101 c -8.676,0 -15.71,-7.034 -15.71,-15.71 V 202.477 c 0,-8.676 7.033,-15.71 15.71,-15.71 h 43.101 c 8.676,0 15.71,7.033 15.71,15.71 z M 230,157 c -21.539,0 -39,-17.461 -39,-39 0,-21.539 17.461,-39 39,-39 21.539,0 39,17.461 39,39 0,21.539 -17.461,39 -39,39 z"
            fill="#A6B7C2"
         />
      </g>
   </g>
</svg>